<?xml version="1.0" standalone="no"?>
<!DOCTYPE svg PUBLIC "-//W3C//DTD SVG 20010904//EN"
 "http://www.w3.org/TR/2001/REC-SVG-20010904/DTD/svg10.dtd">
<svg version="1.0" xmlns="http://www.w3.org/2000/svg"
 width="2560.000000pt" height="2560.000000pt" viewBox="0 0 2560.000000 2560.000000"
 preserveAspectRatio="xMidYMid meet">

<g transform="translate(0.000000,2560.000000) scale(0.100000,-0.100000)" stroke="none">
<path d="M12225 23249 c-71 -3 -156 -7 -189 -8 l-59 -1 6 -42 c26 -176 51
-794 52 -1236 l0 -273 70 5 c39 3 114 8 168 12 l99 6 -6 27 c-10 38 -35 402
-36 504 l0 87 63 0 c269 0 503 88 595 223 54 79 74 151 75 268 1 145 -25 221
-103 299 -129 129 -277 155 -735 129z m360 -153 c59 -21 110 -68 141 -132 25
-51 28 -67 27 -163 0 -92 -3 -113 -25 -162 -50 -109 -164 -169 -324 -169 l-81
0 -7 148 c-5 132 -10 466 -7 485 2 13 234 8 276 -7z"/>
<path d="M11628 23214 c-3 -3 -32 -9 -64 -14 -49 -7 -376 -61 -609 -100 -250
-42 -376 -63 -412 -67 -50 -6 -50 -7 -28 -128 8 -44 14 -85 15 -92 0 -7 42 9
98 38 109 56 232 96 307 101 l50 3 17 -120 c10 -66 22 -147 28 -180 5 -33 26
-159 45 -280 19 -121 40 -245 45 -275 21 -130 41 -287 56 -453 l6 -69 41 5
c23 3 74 10 112 17 39 6 95 15 125 19 30 4 54 11 54 16 -1 6 -14 64 -28 130
-40 183 -47 217 -76 400 -12 77 -25 154 -40 243 -26 150 -80 493 -86 543 l-6
56 59 12 c65 14 270 10 358 -7 28 -5 52 -8 54 -6 2 2 -1 28 -7 56 -6 29 -14
77 -17 106 l-7 52 -42 0 c-24 0 -45 -3 -48 -6z"/>
<path d="M13780 23208 c-168 -28 -308 -96 -411 -198 -148 -145 -222 -332 -235
-590 -13 -253 43 -425 186 -570 156 -159 348 -230 620 -230 200 0 320 32 447
118 156 106 253 253 310 470 21 83 25 120 26 252 1 162 -4 194 -50 310 -84
211 -280 366 -528 418 -154 33 -256 38 -365 20z m320 -160 c66 -25 99 -47 156
-105 72 -75 113 -176 135 -340 23 -165 -18 -415 -94 -573 -94 -197 -260 -299
-444 -273 -150 22 -266 109 -330 248 -51 111 -57 145 -57 330 1 186 15 269 72
416 66 171 189 289 334 319 59 12 162 2 228 -22z"/>
<path d="M14822 23008 c-6 -24 -18 -68 -26 -98 -9 -30 -16 -59 -16 -65 0 -6
42 -9 112 -7 112 4 203 -7 306 -35 47 -13 52 -17 46 -36 -4 -12 -11 -35 -15
-52 -4 -16 -12 -46 -18 -65 -18 -63 -29 -104 -54 -200 -14 -52 -49 -176 -77
-275 -28 -99 -58 -205 -65 -235 -8 -30 -26 -93 -40 -140 -15 -47 -31 -98 -35
-115 -14 -51 -67 -195 -73 -202 -4 -3 -7 -14 -7 -24 0 -12 19 -22 78 -39 42
-12 93 -26 112 -31 19 -6 51 -14 70 -18 19 -5 43 -12 53 -16 13 -6 17 -2 17
17 0 45 86 403 161 668 12 41 35 125 51 185 16 61 33 124 38 140 5 17 16 57
24 89 31 112 68 241 72 248 4 6 79 -13 129 -32 77 -30 233 -117 273 -153 23
-21 24 -21 46 58 9 33 21 74 27 91 14 46 12 50 -33 64 -24 7 -54 16 -68 20
-14 5 -77 22 -140 39 -176 48 -176 48 -325 92 -158 46 -195 57 -245 69 -36 9
-93 25 -145 40 -60 18 -215 60 -220 60 -2 0 -8 -19 -13 -42z"/>
<path d="M10335 22984 c-60 -19 -126 -39 -146 -45 -34 -11 -37 -15 -42 -58 -6
-48 -30 -133 -47 -163 -6 -10 -10 -23 -10 -28 0 -6 -70 -153 -157 -327 -176
-356 -166 -309 -78 -378 21 -16 43 -35 49 -41 6 -5 43 -34 81 -64 98 -76 258
-202 271 -215 6 -5 23 -19 38 -30 15 -11 77 -59 138 -107 60 -49 114 -88 118
-88 5 0 39 7 77 16 37 9 118 27 178 40 61 13 132 29 159 37 l50 13 -100 49
c-125 63 -318 191 -509 338 -31 23 -77 58 -104 77 -169 124 -271 205 -271 216
0 12 83 177 113 225 8 13 41 76 74 139 33 63 69 131 80 150 108 186 141 241
163 268 16 18 -2 15 -125 -24z"/>
<path d="M9505 22730 c-20 -9 -124 -40 -200 -61 -50 -14 -71 -25 -68 -36 3 -9
61 -168 74 -198 10 -25 89 -276 118 -375 12 -41 26 -86 31 -100 4 -14 13 -45
20 -70 7 -25 23 -77 36 -117 13 -39 33 -106 44 -150 12 -43 28 -103 36 -133
30 -110 62 -236 68 -272 4 -21 10 -39 14 -42 6 -4 205 56 285 86 32 12 33 26
7 80 -11 23 -20 50 -20 59 0 10 -4 21 -10 24 -5 3 -10 16 -10 29 0 12 -4 26
-8 31 -8 10 -57 160 -112 345 -17 58 -40 130 -49 160 -10 30 -24 75 -31 100
-7 25 -16 56 -20 70 -4 14 -13 45 -20 70 -7 25 -16 56 -20 70 -4 14 -13 45
-20 70 -7 25 -16 56 -21 70 -11 33 -55 215 -63 263 -7 39 -20 45 -61 27z"/>
<path d="M16181 22603 c-25 -74 -63 -178 -73 -203 -6 -14 -14 -34 -18 -45 -5
-11 -23 -58 -41 -105 -18 -47 -42 -107 -54 -135 -12 -27 -30 -70 -40 -95 -10
-25 -24 -59 -31 -75 -7 -17 -21 -50 -32 -75 -11 -25 -29 -67 -42 -95 -12 -27
-26 -59 -30 -70 -42 -107 -124 -288 -182 -404 -38 -75 -40 -91 -9 -91 9 0 21
-4 27 -8 5 -5 63 -30 129 -56 107 -43 176 -71 240 -97 11 -4 60 -26 108 -49
49 -22 93 -40 98 -40 5 0 17 -4 27 -10 24 -14 411 -200 421 -203 5 -1 33 21
62 48 62 58 129 107 209 152 91 52 294 153 306 153 8 0 14 -35 19 -102 9 -151
11 -496 3 -548 l-8 -45 83 -55 c45 -30 97 -63 115 -73 47 -25 206 -128 212
-137 9 -13 209 -160 217 -160 4 0 31 35 58 77 28 42 64 94 80 114 17 21 59 77
95 124 36 48 79 104 95 124 57 71 90 112 96 123 5 8 171 -117 235 -177 17 -16
118 -97 236 -190 35 -27 69 -55 76 -62 11 -10 -10 -42 -115 -170 -70 -87 -132
-163 -138 -169 -5 -6 -31 -36 -57 -66 -26 -30 -67 -76 -92 -102 -25 -26 -46
-51 -46 -55 0 -4 37 -41 83 -83 45 -41 97 -89 116 -107 18 -17 36 -31 40 -31
4 0 33 37 64 83 30 45 64 91 74 102 10 11 47 58 83 105 36 47 92 119 125 161
33 41 74 92 90 113 67 87 249 311 255 316 3 3 13 14 21 26 28 42 161 195 228
261 18 19 31 36 30 37 -2 2 -44 36 -94 75 -49 39 -108 87 -129 106 l-40 34
-53 -77 c-54 -79 -144 -203 -153 -212 -3 -3 -17 -21 -30 -40 -14 -19 -31 -43
-40 -52 -8 -9 -35 -44 -60 -77 -25 -33 -49 -60 -53 -61 -11 0 -51 31 -320 249
-206 168 -242 203 -219 213 4 2 23 23 42 48 19 25 37 47 40 50 3 3 35 41 70
85 76 94 104 126 186 214 34 36 63 70 64 74 2 13 -251 218 -261 211 -5 -3 -25
-31 -46 -62 -43 -67 -171 -241 -190 -260 -7 -7 -13 -17 -13 -20 0 -4 -10 -18
-23 -32 -13 -14 -47 -56 -77 -95 -30 -38 -75 -95 -100 -126 -25 -31 -59 -74
-76 -95 -17 -21 -66 -82 -109 -134 -42 -52 -95 -117 -117 -145 -61 -76 -190
-215 -199 -215 -25 0 -55 240 -68 550 -6 135 -13 289 -16 342 l-6 98 96 45
c53 25 99 45 101 45 3 0 37 15 77 34 106 50 187 86 192 86 3 0 38 15 77 33 40
19 115 51 166 72 51 21 91 42 90 47 -2 5 -56 42 -121 82 l-119 74 -43 -42
c-59 -56 -156 -126 -235 -168 -135 -73 -272 -140 -276 -135 -9 8 -24 237 -24
362 0 66 7 160 15 210 8 49 11 92 7 96 -7 7 -139 82 -231 131 -30 16 -63 35
-75 43 -11 8 -24 15 -28 15 -11 0 -10 -42 1 -93 25 -111 61 -828 43 -850 -6
-7 -28 -19 -48 -26 -34 -12 -158 -69 -268 -122 -22 -10 -43 -19 -47 -19 -5 0
-50 -20 -101 -44 -108 -51 -212 -95 -216 -92 -1 2 5 22 13 46 8 23 15 44 15
45 0 1 -44 5 -97 8 -147 9 -290 46 -436 111 -17 8 -51 22 -74 32 -48 20 -49
22 -28 70 24 55 73 172 125 299 4 11 18 42 29 68 12 26 29 66 37 88 14 33 20
39 38 33 26 -8 158 -73 209 -102 20 -12 54 -32 74 -43 21 -12 58 -35 82 -51
35 -25 45 -28 52 -17 5 8 9 17 9 21 0 4 11 31 24 60 13 29 31 69 39 89 l15 36
-97 23 c-96 22 -168 43 -206 59 -66 28 -129 51 -141 51 -30 0 -26 19 26 135
10 22 36 85 58 140 22 55 53 128 69 162 l28 61 40 -18 c22 -11 80 -38 129 -60
90 -41 238 -132 279 -171 12 -11 38 -34 58 -50 l36 -29 42 102 c22 56 37 105
33 109 -4 4 -36 19 -72 34 -74 31 -128 55 -218 96 -35 16 -67 29 -73 29 -5 0
-17 4 -27 9 -30 16 -135 62 -217 96 -44 18 -118 49 -163 69 -46 20 -85 36 -86
36 -1 0 -8 -17 -15 -37z"/>
<path d="M8860 22493 c-63 -29 -119 -54 -170 -76 -19 -8 -80 -36 -135 -62 -55
-26 -116 -53 -135 -60 -34 -13 -239 -107 -272 -125 -10 -6 -23 -10 -30 -10 -7
0 -21 -7 -30 -14 -16 -12 -11 -26 65 -177 46 -90 96 -193 111 -229 16 -36 46
-102 67 -148 22 -45 39 -86 39 -91 0 -5 9 -26 19 -48 11 -21 28 -58 39 -83 11
-25 31 -70 45 -100 14 -30 32 -73 40 -95 8 -22 26 -65 40 -95 49 -108 76 -175
83 -205 4 -16 10 -34 14 -40 4 -5 13 -31 21 -57 7 -27 17 -48 22 -48 5 0 50
20 100 44 51 24 121 57 157 74 36 16 108 50 161 76 53 25 99 46 103 46 3 0 30
11 61 25 30 14 81 37 113 51 31 14 75 33 97 41 55 21 105 43 105 47 0 6 -31
80 -56 134 -13 29 -24 56 -24 60 0 4 -4 13 -9 21 -7 10 -25 -2 -77 -55 -106
-107 -184 -159 -354 -241 -147 -70 -145 -70 -164 -32 -9 18 -16 35 -16 40 0 4
-20 49 -44 101 -57 122 -156 352 -156 361 0 6 61 37 135 67 28 12 132 45 185
59 25 7 59 17 76 22 17 5 38 9 47 9 9 0 17 2 17 4 0 3 -15 37 -33 78 -19 40
-40 88 -48 106 -8 17 -17 32 -20 32 -3 0 -48 -29 -101 -64 -79 -53 -305 -176
-323 -176 -3 0 -5 4 -5 10 0 5 -13 39 -30 75 -16 36 -43 94 -60 130 -16 36
-30 68 -30 70 0 3 -16 39 -35 82 -54 115 -56 109 60 159 148 65 273 102 382
115 54 7 102 15 107 20 9 8 -78 199 -91 198 -4 0 -33 -12 -63 -26z"/>
<path d="M7194 21602 c-22 -14 -41 -28 -44 -31 -3 -3 -25 -19 -49 -36 -24 -16
-45 -34 -47 -40 -3 -6 12 -89 32 -185 19 -96 40 -197 45 -225 5 -27 14 -72 19
-100 6 -27 15 -74 21 -102 9 -52 23 -127 39 -208 4 -22 28 -146 54 -275 54
-272 70 -355 87 -462 6 -43 16 -78 20 -78 5 0 9 4 9 8 0 4 12 15 28 24 61 37
167 121 164 132 -2 6 -13 34 -26 62 -25 51 -52 126 -67 179 -20 76 -30 114
-40 160 -6 28 -15 68 -21 90 -5 22 -13 58 -18 80 -5 22 -13 58 -18 80 -5 22
-26 114 -47 205 -20 91 -41 181 -46 200 -27 108 -40 172 -37 176 4 3 52 -28
253 -164 321 -218 431 -293 498 -341 86 -61 207 -174 250 -233 l28 -37 54 35
c30 19 63 38 73 41 9 4 40 21 67 38 28 18 71 44 98 59 51 29 52 38 5 62 -30
15 -253 160 -273 177 -5 5 -57 41 -115 81 -58 39 -136 94 -175 121 -38 27
-126 87 -195 134 -69 47 -127 87 -130 90 -12 14 -70 51 -79 51 -5 0 -11 4 -13
8 -1 5 -55 44 -118 87 -63 43 -137 95 -165 115 -68 51 -77 52 -121 22z"/>
<path d="M6274 20821 c-71 -12 -170 -45 -235 -79 -73 -39 -103 -56 -109 -63
-3 -3 -10 -8 -17 -10 -24 -8 -177 -147 -231 -209 -30 -36 -75 -96 -99 -133
-48 -73 -97 -177 -85 -177 4 -1 41 -33 82 -71 l75 -71 6 64 c10 96 51 208 99
272 120 158 259 236 422 236 128 0 234 -38 348 -124 92 -69 90 -62 34 -115
-27 -26 -78 -71 -114 -101 -36 -30 -67 -57 -70 -60 -16 -17 -148 -115 -228
-169 -51 -35 -95 -67 -97 -72 -3 -4 12 -27 32 -50 21 -23 55 -62 77 -86 21
-24 41 -43 45 -43 3 0 16 15 28 33 13 18 31 42 40 53 10 11 38 42 62 69 62 70
216 228 295 304 42 40 72 61 81 57 8 -3 39 -43 68 -88 88 -136 117 -225 117
-359 0 -127 -26 -207 -99 -299 -117 -147 -252 -218 -433 -228 -49 -2 -88 -6
-88 -9 0 -2 20 -25 44 -51 24 -26 64 -69 89 -97 l46 -50 53 29 c176 98 399
297 483 430 10 17 22 33 25 36 6 6 53 101 73 150 45 111 63 247 47 356 -15
101 -24 130 -75 239 -51 107 -93 167 -177 253 -99 101 -225 180 -346 215 -65
20 -200 28 -268 18z"/>
<path d="M19940 20092 c-63 -66 -243 -234 -325 -303 -22 -18 -60 -51 -86 -74
-43 -38 -149 -131 -200 -176 -13 -11 -41 -35 -62 -52 -22 -18 -49 -40 -60 -50
-12 -10 -38 -31 -57 -47 -19 -16 -55 -46 -80 -65 -25 -20 -52 -42 -61 -49 -9
-7 -42 -32 -75 -54 -87 -61 -98 -71 -90 -79 5 -5 56 -58 114 -120 58 -62 108
-110 112 -108 4 2 38 9 76 16 38 6 89 15 114 20 25 5 88 15 140 24 52 8 115
19 140 24 25 5 71 14 103 20 31 6 81 16 110 21 234 45 374 70 396 70 13 0 38
4 55 9 17 6 74 17 126 26 52 9 104 18 115 21 27 7 -3 -21 -320 -296 -71 -62
-148 -128 -170 -147 -22 -19 -60 -52 -84 -72 -24 -20 -56 -47 -72 -61 -15 -14
-42 -36 -60 -50 -18 -14 -52 -41 -74 -61 -23 -19 -63 -48 -88 -65 -26 -16 -47
-36 -47 -46 0 -9 22 -43 48 -75 27 -32 59 -74 72 -93 14 -19 30 -41 37 -48 7
-8 18 -23 24 -34 10 -19 18 -13 107 75 54 52 119 114 147 138 27 24 59 53 71
64 11 11 45 41 75 66 30 26 66 57 80 70 14 13 51 46 83 73 31 27 70 61 85 75
16 14 40 35 52 45 13 11 42 35 65 55 22 20 62 55 90 77 27 23 63 54 79 68 17
15 55 46 85 69 30 23 57 45 60 48 3 3 26 20 53 38 43 29 59 54 39 63 -4 2 -18
17 -31 33 -12 17 -39 48 -59 70 -20 22 -50 57 -65 78 -15 20 -36 37 -45 37 -9
0 -89 -14 -177 -30 -232 -44 -266 -51 -310 -60 -37 -8 -72 -14 -225 -41 -166
-30 -531 -99 -577 -109 -23 -6 -54 -10 -70 -10 l-28 0 35 33 c19 17 64 57 100
87 36 30 79 68 96 85 18 16 49 44 70 61 22 18 53 45 69 60 17 16 44 39 60 52
17 13 48 40 70 60 22 20 78 69 125 108 74 62 129 105 278 221 l32 25 -42 52
c-24 28 -45 53 -48 56 -3 3 -32 37 -64 75 -32 39 -62 71 -65 73 -3 1 -35 -29
-71 -66z"/>
<path d="M12770 19957 c-3 -2 -106 -8 -229 -11 -123 -4 -229 -9 -235 -12 -6
-2 -60 -9 -121 -14 -245 -22 -393 -42 -590 -80 -22 -5 -65 -13 -96 -18 -51 -9
-171 -36 -345 -78 -54 -13 -264 -73 -429 -124 -33 -10 -112 -37 -175 -60 -63
-23 -140 -50 -170 -61 -74 -26 -293 -120 -304 -131 -6 -4 -16 -8 -23 -8 -26 0
-536 -257 -640 -323 -24 -15 -45 -27 -47 -27 -14 0 -448 -280 -501 -322 -5 -5
-57 -43 -115 -85 -58 -42 -107 -79 -110 -83 -3 -3 -25 -21 -50 -40 -70 -53
-269 -219 -325 -270 -205 -188 -347 -328 -490 -481 -282 -302 -542 -641 -799
-1042 -31 -48 -56 -89 -56 -92 0 -2 -22 -40 -49 -84 -95 -154 -371 -696 -371
-727 0 -3 -11 -30 -25 -60 -14 -30 -25 -57 -25 -59 0 -2 -11 -28 -24 -57 -13
-29 -43 -105 -66 -168 -22 -63 -45 -124 -50 -135 -17 -39 -87 -260 -144 -455
-36 -122 -97 -381 -126 -530 -6 -30 -15 -75 -20 -100 -42 -206 -112 -836 -109
-981 l2 -54 8 45 c4 25 8 72 8 106 1 33 5 85 10 115 6 30 15 99 21 154 36 310
121 702 227 1045 19 63 39 124 43 135 4 11 17 52 29 90 12 39 26 79 30 90 5
11 28 70 51 130 49 126 48 125 93 225 18 41 40 91 48 110 8 19 44 96 82 171
37 76 67 142 67 147 0 6 3 12 8 14 4 2 22 32 41 68 19 36 40 72 47 81 8 8 14
19 14 22 0 4 18 37 40 73 22 36 40 68 40 71 0 2 18 31 40 64 22 33 40 63 40
65 0 18 316 461 384 538 14 16 26 32 26 35 0 4 18 26 39 50 21 24 52 59 67 79
16 20 49 59 74 86 25 28 67 75 95 106 74 82 337 343 445 441 129 118 358 305
450 369 19 13 40 29 47 35 31 31 475 320 568 370 28 15 55 30 60 35 40 29 561
290 581 290 2 0 28 11 57 25 30 13 76 32 103 41 27 9 67 24 89 34 39 18 147
57 230 84 78 26 341 107 380 118 22 6 54 14 70 19 29 8 170 40 270 60 28 6 66
15 85 20 169 42 551 88 915 110 215 12 638 7 816 -11 256 -25 315 -33 499 -61
107 -17 211 -35 230 -39 35 -9 47 -12 220 -50 122 -27 159 -37 355 -95 66 -20
129 -40 140 -44 11 -5 49 -17 85 -29 36 -11 94 -32 130 -45 36 -14 103 -40
150 -57 47 -17 113 -45 148 -61 35 -16 65 -29 67 -29 9 0 328 -152 390 -187
17 -9 39 -20 49 -26 58 -29 299 -169 381 -221 30 -20 59 -36 64 -36 5 0 11 -4
13 -8 2 -5 35 -30 73 -55 39 -26 102 -69 140 -97 39 -27 97 -68 130 -91 33
-24 62 -45 65 -49 3 -3 50 -42 105 -85 55 -44 102 -82 105 -85 3 -3 34 -30 70
-60 36 -30 88 -75 115 -100 71 -64 391 -384 450 -451 116 -130 165 -187 211
-244 26 -33 51 -62 54 -65 3 -3 46 -59 95 -125 49 -66 92 -122 96 -125 4 -3
15 -19 25 -36 11 -18 45 -69 77 -114 32 -45 70 -103 84 -129 15 -25 42 -67 60
-92 18 -26 33 -49 33 -53 0 -3 11 -23 23 -44 23 -36 41 -66 120 -207 35 -63
155 -305 236 -477 17 -37 31 -73 31 -80 0 -8 4 -18 9 -23 17 -19 178 -451 198
-530 2 -11 8 -29 12 -40 27 -68 121 -425 121 -457 0 -15 -9 -18 -57 -18 -32 0
-87 -5 -122 -10 -35 -6 -66 -9 -68 -6 -4 4 -68 217 -92 311 -10 37 -40 123
-81 235 -18 47 -43 117 -57 155 -14 39 -29 74 -34 80 -5 5 -9 15 -9 22 0 7
-16 44 -35 84 -19 39 -37 80 -41 92 -16 50 -169 348 -258 502 -54 92 -195 317
-214 340 -4 6 -28 39 -52 75 -38 57 -73 103 -204 275 -17 22 -33 42 -36 45 -3
3 -27 32 -55 65 -207 251 -533 572 -774 765 -24 19 -58 47 -75 61 -153 127
-489 355 -681 462 -38 22 -97 55 -130 73 -65 37 -359 184 -368 184 -3 0 -34
13 -69 29 -79 37 -239 101 -250 101 -5 0 -28 9 -50 20 -23 11 -48 20 -55 20
-7 0 -21 4 -31 10 -45 25 -241 84 -572 170 -76 20 -169 40 -260 55 -52 8 -117
20 -145 25 -518 95 -1193 99 -1765 10 -36 -6 -81 -12 -100 -15 -19 -3 -60 -10
-90 -16 -30 -6 -77 -15 -105 -20 -211 -41 -493 -119 -755 -210 -19 -7 -54 -21
-77 -31 -24 -10 -47 -18 -51 -18 -8 0 -119 -45 -282 -115 -98 -42 -326 -155
-415 -205 -38 -22 -91 -51 -116 -64 -53 -28 -300 -185 -373 -236 -169 -119
-341 -247 -375 -280 -9 -9 -38 -33 -66 -55 -268 -214 -665 -630 -886 -930 -24
-33 -46 -62 -49 -65 -16 -14 -70 -89 -70 -96 0 -4 -17 -30 -38 -58 -21 -28
-44 -61 -50 -73 -7 -12 -18 -28 -24 -35 -7 -8 -20 -25 -27 -38 -8 -14 -46 -77
-85 -140 -94 -157 -138 -235 -226 -410 -67 -133 -181 -391 -205 -465 -8 -22
-32 -87 -54 -145 -22 -58 -41 -111 -41 -118 0 -7 -4 -20 -10 -30 -5 -9 -19
-51 -31 -92 -11 -41 -25 -86 -29 -100 -4 -14 -13 -43 -19 -65 -6 -22 -19 -71
-30 -110 -46 -166 -102 -454 -140 -720 -21 -149 -34 -275 -28 -281 3 -3 8 9
11 27 13 91 50 300 61 344 7 28 20 86 30 130 27 127 121 446 155 530 5 11 30
76 56 144 26 69 53 136 61 150 7 14 13 29 13 34 0 4 18 44 39 90 97 205 180
361 261 495 25 40 59 95 75 123 55 90 182 272 252 359 6 8 29 38 50 66 36 49
60 77 155 188 104 120 313 335 415 425 157 141 216 190 320 269 48 37 90 69
93 73 5 6 210 147 238 164 9 6 41 26 72 46 160 105 522 294 715 374 50 21 104
43 120 50 224 95 612 207 920 265 190 36 208 39 305 49 52 6 145 16 205 22
142 16 726 16 870 0 240 -26 275 -30 458 -62 295 -51 761 -186 1007 -292 19
-8 64 -27 100 -41 79 -32 405 -194 475 -236 28 -17 72 -42 99 -56 27 -14 54
-30 60 -35 19 -16 115 -79 120 -79 7 0 235 -157 266 -183 9 -7 47 -37 85 -67
161 -122 295 -241 469 -415 161 -160 244 -252 383 -425 50 -62 114 -145 143
-186 19 -27 51 -73 72 -102 43 -59 175 -269 204 -322 10 -19 22 -36 27 -38 4
-2 7 -7 7 -12 0 -4 16 -37 36 -72 37 -64 125 -237 162 -318 84 -185 146 -343
212 -540 10 -30 21 -62 25 -71 5 -14 -11 -18 -117 -28 -68 -6 -142 -14 -165
-17 l-41 -6 -25 79 c-22 70 -87 238 -123 320 -8 17 -14 34 -14 37 0 16 -160
331 -219 431 -55 94 -164 268 -189 300 -4 6 -30 42 -57 80 -56 79 -51 73 -134
175 -113 139 -155 184 -301 330 -152 153 -252 244 -360 330 -36 28 -72 56 -80
63 -89 71 -295 213 -356 246 -21 12 -68 40 -104 62 -36 22 -90 53 -120 68
-191 97 -281 141 -289 141 -5 0 -29 10 -53 21 -23 12 -52 25 -63 30 -11 4 -54
21 -96 38 -70 28 -293 102 -364 121 -117 32 -150 40 -230 58 -346 77 -610 106
-965 106 -227 0 -402 -11 -558 -34 -181 -27 -210 -32 -247 -40 -22 -5 -85 -19
-140 -30 -129 -27 -139 -29 -335 -90 -170 -53 -272 -88 -350 -123 -25 -10 -58
-25 -75 -32 -93 -39 -164 -71 -195 -88 -19 -11 -71 -38 -115 -60 -96 -49 -301
-171 -406 -243 -76 -51 -189 -134 -199 -144 -3 -3 -21 -17 -40 -30 -19 -14
-46 -34 -60 -46 -14 -12 -74 -64 -135 -116 -111 -96 -356 -342 -430 -432 -22
-27 -45 -54 -50 -60 -56 -60 -168 -211 -255 -341 -19 -29 -56 -85 -82 -124
-27 -40 -48 -73 -48 -76 0 -2 -24 -45 -54 -97 -74 -129 -202 -394 -241 -498
-21 -57 -30 -79 -43 -110 -28 -68 -54 -141 -66 -186 -8 -27 -28 -94 -44 -149
-27 -87 -47 -165 -82 -320 -10 -43 -48 -264 -52 -304 -4 -32 -21 -37 -208 -50
-144 -11 -205 -16 -460 -41 -52 -5 -147 -14 -210 -20 -152 -14 -619 -58 -745
-70 -55 -5 -174 -14 -265 -20 -91 -6 -186 -13 -211 -17 -46 -5 -47 -6 -53 -47
-13 -76 9 -626 34 -866 22 -206 61 -490 80 -585 5 -22 13 -65 19 -95 14 -70
69 -313 81 -362 25 -96 32 -121 71 -248 23 -74 45 -148 49 -165 11 -42 43
-135 80 -235 18 -47 40 -107 50 -135 26 -74 74 -192 104 -257 14 -31 26 -59
26 -63 0 -27 253 -527 339 -670 20 -33 47 -81 61 -107 14 -27 28 -48 32 -48 5
0 8 -5 8 -10 0 -6 21 -43 47 -83 63 -99 166 -251 172 -257 4 -3 12 -17 20 -32
8 -15 22 -36 31 -45 9 -10 40 -52 70 -93 30 -41 65 -89 79 -106 14 -16 37 -45
51 -64 27 -36 71 -92 80 -100 3 -3 25 -30 50 -60 197 -245 555 -606 815 -825
44 -37 91 -77 105 -89 14 -11 45 -37 70 -56 25 -19 47 -37 50 -40 24 -27 455
-335 493 -352 15 -7 27 -16 27 -20 0 -5 5 -8 12 -8 6 0 25 -10 42 -23 44 -33
235 -147 246 -147 6 0 10 -3 10 -7 0 -5 10 -13 23 -19 40 -19 152 -79 157 -84
9 -9 413 -207 480 -235 36 -15 79 -33 95 -41 102 -44 141 -59 264 -105 75 -27
150 -55 166 -61 17 -5 39 -14 50 -18 11 -5 54 -19 95 -31 41 -12 95 -28 120
-37 25 -8 59 -18 75 -22 17 -5 71 -20 120 -35 50 -14 119 -32 155 -39 36 -8
128 -28 205 -45 236 -53 348 -72 580 -100 83 -10 214 -23 416 -41 151 -13 731
-13 874 0 60 6 162 16 225 22 235 21 477 56 680 98 171 35 444 100 525 125 22
7 60 18 85 25 25 7 70 20 100 30 30 10 75 23 100 30 25 8 49 17 54 22 6 4 18
8 28 8 10 0 26 4 36 9 9 5 69 28 132 51 167 61 226 85 347 141 34 16 64 29 67
29 29 0 452 216 666 340 117 68 529 334 540 349 3 4 35 29 72 55 37 26 107 79
155 117 49 38 100 78 114 89 14 11 37 30 50 42 14 13 40 36 59 52 181 149 397
357 601 577 63 68 120 131 127 139 6 8 31 38 56 65 41 47 195 237 243 301 55
72 122 165 163 224 24 36 50 71 57 78 8 8 21 28 29 45 9 17 32 52 50 79 19 26
30 48 25 48 -5 0 -28 -30 -52 -66 -24 -37 -48 -72 -54 -78 -6 -6 -37 -47 -70
-91 -62 -83 -133 -172 -213 -264 -26 -30 -56 -66 -67 -80 -52 -67 -405 -427
-515 -526 -123 -110 -177 -157 -250 -215 -24 -19 -48 -39 -54 -45 -86 -79
-673 -485 -702 -485 -2 0 -28 -15 -57 -34 -28 -19 -90 -55 -137 -80 -96 -52
-488 -246 -496 -246 -4 0 -54 -21 -113 -46 -108 -48 -235 -95 -441 -164 -193
-64 -324 -102 -597 -169 -92 -23 -431 -83 -568 -101 -197 -25 -240 -30 -399
-41 -226 -15 -851 -7 -1036 15 -204 24 -396 51 -465 66 -22 5 -92 18 -155 30
-63 12 -131 25 -150 30 -19 5 -57 14 -85 21 -27 6 -97 25 -155 41 -58 17 -118
34 -135 38 -93 26 -119 34 -215 66 -58 19 -114 39 -125 44 -11 5 -40 16 -65
24 -52 16 -122 43 -165 61 -16 7 -70 30 -120 50 -214 87 -845 418 -920 483 -5
4 -48 32 -95 62 -47 30 -111 73 -142 97 -32 23 -75 53 -96 67 -21 13 -45 30
-53 38 -8 7 -39 31 -69 53 -30 22 -84 64 -120 93 -36 29 -74 60 -85 69 -18 15
-96 83 -200 173 -69 61 -428 422 -490 494 -33 38 -65 74 -70 80 -44 47 -146
175 -252 315 -40 53 -77 101 -81 106 -4 6 -37 53 -72 105 -36 52 -68 96 -72
98 -5 2 -8 8 -8 13 0 5 -15 31 -34 57 -32 46 -96 148 -139 222 -40 70 -187
333 -187 336 0 1 -31 67 -68 146 -76 158 -92 194 -142 313 -5 11 -18 41 -29
67 -12 26 -21 50 -21 54 0 5 -21 62 -46 128 -70 183 -105 289 -144 431 -5 17
-20 71 -35 120 -14 50 -33 122 -41 160 -9 39 -22 99 -30 135 -22 95 -60 294
-73 377 -29 187 -32 210 -61 527 -6 60 -10 275 -10 478 l0 368 145 0 145 0 1
-230 c1 -126 2 -233 3 -237 1 -5 6 -60 9 -123 11 -169 34 -369 57 -495 5 -27
14 -79 20 -115 11 -69 65 -322 80 -380 44 -165 141 -474 183 -585 132 -345
271 -644 399 -860 20 -33 46 -78 59 -101 60 -104 315 -484 338 -504 3 -3 26
-32 51 -65 25 -33 47 -62 50 -65 3 -3 34 -41 69 -85 160 -198 411 -455 641
-657 36 -31 76 -66 90 -78 14 -12 41 -34 60 -49 19 -14 42 -32 50 -40 13 -12
56 -45 255 -192 92 -68 393 -259 480 -305 22 -12 74 -40 115 -63 41 -23 116
-61 165 -85 50 -24 119 -58 154 -75 36 -17 68 -31 72 -31 5 0 36 -13 71 -29
125 -57 156 -70 259 -106 285 -100 535 -174 724 -214 153 -33 260 -53 320 -62
39 -5 99 -14 135 -19 36 -5 110 -14 165 -20 55 -6 116 -13 135 -15 100 -14
493 -22 679 -14 297 12 662 54 879 100 53 12 115 25 137 30 73 15 119 26 240
59 66 17 134 36 150 40 32 8 87 27 255 85 120 41 183 65 360 140 86 36 437
208 497 244 27 15 77 45 113 66 107 63 379 238 417 269 10 8 72 55 138 106
278 211 506 418 748 677 57 61 72 91 17 35 -100 -102 -345 -304 -530 -436
-137 -98 -405 -271 -439 -284 -9 -3 -47 -24 -86 -47 -68 -39 -250 -131 -349
-175 -77 -34 -366 -150 -410 -165 -198 -64 -425 -128 -511 -145 -33 -6 -78
-16 -100 -20 -103 -23 -151 -31 -300 -54 -88 -13 -212 -30 -275 -37 -157 -18
-745 -18 -915 0 -119 12 -443 61 -540 82 -22 4 -62 12 -90 18 -42 8 -104 23
-320 81 -16 4 -50 14 -75 23 -25 8 -76 25 -115 37 -68 21 -249 88 -310 115
-16 8 -59 26 -95 40 -97 40 -372 178 -480 241 -52 30 -103 58 -112 61 -10 3
-18 9 -18 14 0 5 -4 9 -10 9 -18 0 -414 270 -440 300 -3 3 -24 19 -47 36 -24
17 -109 88 -190 157 -181 155 -397 372 -569 572 -68 80 -214 265 -236 301 -15
22 -32 47 -40 55 -7 8 -26 34 -43 59 -16 25 -32 47 -35 50 -9 9 -190 299 -190
305 0 2 -13 26 -28 52 -32 55 -172 329 -196 386 -9 20 -23 53 -31 72 -8 19
-21 50 -29 68 -35 81 -65 157 -86 217 -12 36 -37 108 -55 160 -49 144 -72 223
-105 365 -88 372 -104 471 -135 855 -15 178 -20 575 -9 643 l7 37 158 0 158 0
0 -212 c-1 -354 32 -655 109 -1013 32 -148 122 -455 162 -550 5 -11 23 -56 40
-100 18 -44 43 -102 56 -129 13 -28 24 -53 24 -58 0 -21 175 -356 222 -425 15
-23 28 -45 28 -49 0 -3 18 -33 40 -65 22 -32 40 -63 40 -68 0 -5 3 -11 8 -13
4 -1 32 -39 61 -83 58 -86 165 -228 215 -286 17 -19 58 -67 91 -105 133 -153
385 -394 543 -519 14 -11 48 -38 76 -60 28 -23 80 -61 116 -85 36 -25 67 -47
70 -50 7 -8 182 -119 274 -175 92 -55 292 -158 386 -200 36 -15 88 -38 115
-50 28 -13 77 -33 110 -45 33 -12 68 -26 77 -31 10 -5 26 -9 36 -9 10 0 22 -4
27 -9 16 -14 291 -97 430 -129 233 -54 305 -67 595 -103 125 -16 673 -16 815
0 239 26 374 50 695 126 101 24 262 74 335 105 11 5 49 19 85 31 36 12 85 31
110 41 25 11 54 24 65 28 53 23 341 163 345 169 3 3 28 17 55 31 28 13 66 34
85 47 l35 23 -37 0 c-21 0 -84 -18 -140 -41 -368 -147 -723 -229 -1159 -269
-308 -27 -669 2 -1064 86 -177 38 -469 128 -569 175 -22 11 -43 19 -47 19 -16
0 -347 160 -374 180 -5 5 -37 23 -70 41 -79 43 -238 147 -320 209 -37 28 -70
50 -76 50 -5 0 -9 3 -9 8 0 4 -11 14 -24 22 -98 61 -432 383 -576 555 -124
148 -330 438 -330 465 0 5 -3 10 -8 10 -4 0 -18 21 -31 48 -14 26 -32 58 -42
72 -20 31 -119 222 -119 231 0 4 -20 49 -43 100 -151 325 -248 686 -309 1149
-25 190 -14 724 18 888 l4 22 4755 0 4755 0 0 53 c0 77 -29 443 -46 587 -26
219 -42 325 -74 500 -46 250 -47 254 -149 640 -28 105 -140 457 -161 505 -4
11 -39 97 -76 190 -37 94 -80 199 -97 235 -16 36 -41 90 -54 120 -64 143 -262
520 -305 582 -10 14 -18 29 -18 32 0 4 -15 30 -34 59 -18 28 -61 97 -96 152
-35 55 -66 102 -69 105 -3 3 -12 16 -20 30 -8 14 -33 52 -57 85 -98 135 -190
261 -201 275 -7 8 -44 56 -84 105 -82 104 -122 151 -262 310 -145 165 -516
524 -692 670 -33 27 -66 56 -73 63 -8 7 -30 25 -50 40 -21 15 -39 30 -42 33
-3 3 -54 43 -115 88 -60 45 -117 88 -125 94 -59 48 -484 327 -497 327 -3 0
-17 8 -31 19 -93 66 -530 292 -727 376 -16 7 -56 24 -88 39 -32 14 -60 26 -62
26 -3 0 -27 9 -53 21 -63 28 -73 32 -177 69 -49 17 -99 35 -110 40 -54 23
-349 116 -495 155 -52 14 -111 29 -130 35 -32 9 -259 58 -370 80 -147 29 -309
56 -400 65 -30 3 -91 10 -135 15 -151 18 -290 29 -415 34 -69 3 -195 8 -280
12 -85 3 -157 4 -160 1z m-595 -3676 c351 -51 569 -107 871 -221 134 -51 395
-178 529 -257 95 -56 324 -209 335 -223 3 -3 34 -29 70 -56 199 -150 479 -428
606 -599 16 -22 39 -51 52 -65 33 -37 199 -283 249 -370 82 -143 263 -522 263
-550 0 -10 -112 -24 -355 -45 -180 -16 -239 -21 -502 -45 -62 -5 -161 -14
-220 -20 -60 -5 -178 -16 -263 -24 -85 -9 -213 -20 -285 -26 -71 -6 -175 -15
-230 -20 -55 -6 -176 -17 -270 -26 -93 -8 -262 -24 -375 -34 -113 -11 -261
-24 -330 -30 -69 -6 -161 -15 -205 -20 -44 -5 -168 -16 -275 -25 -107 -9 -240
-21 -295 -26 -217 -20 -315 -29 -425 -39 -63 -5 -158 -14 -210 -19 -52 -5
-180 -17 -285 -26 -104 -8 -233 -20 -285 -25 -52 -5 -147 -14 -210 -20 -63 -6
-232 -21 -375 -35 -380 -36 -471 -44 -560 -50 -44 -4 -195 -17 -335 -30 -140
-14 -307 -29 -370 -35 -63 -6 -151 -15 -196 -20 -44 -6 -104 -10 -133 -10
l-53 0 7 43 c19 111 130 506 166 582 13 30 69 166 81 200 12 32 141 288 175
345 11 19 31 53 44 75 47 81 235 352 259 375 3 3 16 18 28 34 169 221 541 565
767 711 33 22 62 42 65 46 13 17 274 166 399 228 191 95 436 190 606 236 201
55 213 57 415 93 242 43 333 50 660 46 193 -2 289 -8 395 -23z"/>
<path d="M4062 19154 l-73 -106 44 -39 c95 -83 103 -193 18 -267 -58 -50 -117
-52 -205 -7 -27 14 -50 24 -51 22 -11 -13 -145 -217 -145 -220 0 -8 43 -18
110 -26 177 -22 318 47 421 204 95 144 105 315 27 459 -22 42 -57 86 -68 86
-3 0 -38 -48 -78 -106z"/>
<path d="M4526 19100 c-66 -98 -86 -135 -81 -150 6 -19 59 -133 155 -335 88
-186 125 -265 163 -345 21 -47 62 -132 89 -190 27 -58 61 -130 75 -160 14 -30
46 -97 70 -148 25 -51 44 -95 41 -97 -2 -3 -67 39 -144 92 -76 53 -164 112
-194 131 -30 19 -57 38 -60 41 -3 3 -25 20 -50 36 -25 17 -49 34 -55 38 -5 4
-55 39 -110 77 -55 38 -104 73 -110 77 -5 5 -26 19 -45 33 -19 13 -37 27 -40
30 -3 3 -40 32 -82 64 -43 32 -80 62 -84 67 -3 5 -11 9 -18 9 -12 0 -181 -242
-188 -268 -2 -7 26 -29 62 -48 94 -51 886 -585 960 -647 8 -7 31 -23 50 -37
46 -31 183 -142 191 -153 6 -9 23 16 71 103 14 25 42 73 62 107 20 34 36 64
36 67 0 5 -65 144 -158 336 -25 52 -60 127 -77 165 -18 39 -58 123 -89 187
-31 65 -56 120 -56 123 0 2 -29 64 -64 137 -35 73 -74 156 -86 183 -12 28 -36
76 -51 108 -28 55 -26 73 5 42 8 -8 19 -15 24 -15 6 0 12 -4 14 -8 2 -5 95
-71 208 -147 113 -76 214 -146 226 -156 11 -11 25 -19 30 -19 6 0 19 -8 30
-18 10 -10 78 -58 149 -107 72 -49 141 -99 155 -112 14 -13 28 -23 31 -23 3 0
22 -14 40 -30 60 -54 63 -54 98 -5 17 24 37 50 44 57 7 7 38 49 69 92 l57 79
-37 20 c-80 42 -121 66 -217 128 -105 68 -337 224 -491 331 -50 35 -126 88
-170 117 -43 30 -83 59 -89 63 -5 4 -53 40 -105 79 -52 39 -109 84 -125 100
-17 16 -33 29 -36 29 -3 0 -45 -58 -93 -130z"/>
<path d="M21045 18865 c-46 -39 -262 -185 -272 -185 -5 0 -18 -8 -29 -17 -23
-21 -45 -35 -94 -62 -118 -66 -209 -175 -231 -279 -33 -162 90 -400 300 -577
l71 -60 -28 -22 c-15 -13 -31 -23 -35 -23 -5 0 -28 -13 -52 -30 -24 -16 -46
-30 -49 -30 -3 0 -33 -18 -67 -40 -34 -22 -66 -40 -70 -40 -7 0 -63 -32 -149
-85 -19 -12 -56 -30 -82 -40 l-48 -18 32 -61 c18 -33 35 -63 38 -66 3 -3 23
-40 44 -82 21 -43 42 -80 47 -83 5 -4 28 8 51 25 88 63 274 182 533 340 66 40
177 108 247 152 70 43 132 78 138 78 5 0 10 5 10 10 0 6 5 10 10 10 6 0 34 15
63 33 29 18 93 53 142 78 50 24 92 47 95 50 3 3 14 9 25 13 11 4 15 10 10 14
-6 4 -16 18 -23 31 -8 13 -22 38 -31 55 -10 17 -39 64 -64 104 -26 40 -47 77
-47 82 0 17 -16 11 -63 -25 -72 -55 -267 -185 -278 -185 -5 0 -9 -4 -9 -10 0
-5 -5 -10 -11 -10 -6 0 -30 -13 -54 -30 -24 -16 -46 -30 -49 -30 -3 0 -36 -20
-73 -45 -37 -25 -71 -45 -77 -45 -6 0 -44 35 -85 78 -143 149 -197 272 -162
365 30 78 176 180 466 327 55 28 104 55 109 60 5 5 -9 38 -35 81 -24 40 -51
84 -59 98 -58 97 -72 121 -73 121 -1 -1 -15 -12 -32 -25z"/>
<path d="M3593 17613 c-7 -15 -13 -30 -13 -34 0 -4 -25 -59 -55 -122 -30 -63
-55 -117 -55 -121 0 -3 9 -6 19 -6 11 0 23 -4 26 -10 3 -5 14 -10 24 -10 10 0
31 -6 47 -14 16 -8 76 -35 134 -59 92 -40 180 -80 405 -187 228 -108 581 -285
637 -319 37 -23 73 -41 80 -41 12 0 165 287 157 294 -2 3 -38 18 -79 34 -41
16 -101 42 -132 56 -31 14 -60 26 -64 26 -11 0 -450 209 -759 362 -180 89
-200 100 -286 151 -57 34 -71 34 -86 0z"/>
<path d="M21845 17424 c-47 -30 -382 -194 -395 -194 -4 0 -25 -9 -47 -20 -56
-29 -213 -100 -253 -115 -19 -7 -74 -31 -122 -54 -48 -23 -90 -41 -93 -41 -3
0 -27 -9 -53 -21 -26 -12 -56 -25 -67 -29 -11 -4 -37 -15 -57 -24 -65 -29
-171 -68 -218 -81 -27 -7 -44 -17 -42 -25 2 -7 25 -59 52 -117 28 -57 50 -106
50 -109 0 -3 13 -33 29 -67 44 -95 55 -121 114 -268 54 -133 84 -203 113 -263
8 -16 14 -34 14 -41 0 -6 6 -19 13 -28 11 -14 16 -15 42 -3 17 8 67 31 112 52
l82 38 -39 33 c-71 61 -164 189 -222 305 -104 209 -118 248 -89 248 5 0 51 20
102 43 154 72 189 87 194 87 3 0 38 15 78 34 40 19 88 41 108 49 l36 15 32
-82 c18 -44 36 -89 42 -98 5 -10 9 -26 9 -36 0 -10 3 -22 7 -25 8 -9 53 -185
53 -209 0 -25 10 -23 103 21 45 21 92 42 104 45 22 7 21 9 -27 80 -67 100
-167 285 -184 341 -6 22 10 31 224 125 36 16 100 45 142 64 43 20 83 37 89 38
6 2 29 -40 51 -92 82 -201 113 -313 125 -447 3 -40 7 -73 8 -73 1 0 15 6 31
14 16 7 61 28 101 46 80 36 77 27 34 123 -10 23 -38 87 -61 142 -23 55 -54
127 -70 160 -15 33 -40 89 -55 125 -15 36 -42 97 -60 135 -17 39 -42 97 -55
130 -38 97 -39 97 -85 69z"/>
<path d="M4080 16783 c-109 -40 -181 -99 -248 -203 -37 -59 -91 -170 -113
-235 -7 -22 -17 -44 -21 -49 -4 -6 -8 -17 -8 -26 0 -39 -20 -38 -139 10 -116
47 -233 101 -364 166 -37 19 -70 34 -72 34 -2 0 -15 -33 -30 -72 -15 -40 -43
-111 -62 -157 -19 -46 -32 -85 -30 -87 1 -2 43 -16 92 -33 88 -28 350 -126
416 -155 85 -37 107 -45 149 -61 25 -10 64 -26 87 -36 24 -10 49 -19 56 -19 7
0 17 -4 23 -8 5 -5 34 -19 64 -31 30 -13 69 -29 85 -36 17 -7 55 -23 85 -35
51 -21 154 -67 272 -123 26 -12 48 -25 48 -29 0 -5 8 -8 18 -8 12 0 24 19 41
63 13 34 30 78 38 97 8 19 18 44 23 55 4 11 22 58 40 105 17 47 36 94 40 105
59 145 79 356 45 460 -49 146 -163 252 -322 300 -46 14 -182 19 -213 8z m162
-325 c95 -39 147 -82 192 -157 33 -56 30 -182 -8 -283 -15 -43 -31 -78 -35
-78 -10 0 -422 167 -443 180 -10 5 -22 10 -27 10 -22 0 -111 46 -111 57 0 32
76 187 109 222 28 30 81 62 121 73 41 11 145 -1 202 -24z"/>
<path d="M21730 16195 c-117 -20 -173 -33 -221 -50 -238 -89 -395 -255 -459
-486 -25 -92 -28 -283 -5 -394 16 -77 65 -236 91 -292 7 -18 22 -50 31 -70 20
-45 100 -170 114 -179 9 -5 49 8 150 49 l26 11 -53 48 c-148 136 -238 388
-203 573 5 28 25 83 44 124 59 124 176 220 345 284 132 50 222 67 350 67 221
0 375 -75 472 -230 55 -87 73 -158 73 -285 0 -126 -17 -190 -70 -280 -26 -42
-30 -55 -17 -50 9 4 73 21 141 37 l123 31 -6 101 c-11 168 -47 356 -93 481
-57 155 -191 330 -313 406 -105 66 -145 80 -290 104 -99 17 -129 17 -230 0z"/>
<path d="M3044 15652 c-63 -21 -117 -57 -138 -94 -9 -15 -23 -33 -30 -40 -13
-14 -69 -128 -80 -163 -8 -26 -108 -506 -126 -600 -4 -22 -11 -52 -15 -67 -7
-27 -6 -28 29 -28 62 0 291 -39 676 -116 96 -19 193 -39 215 -44 22 -5 85 -19
140 -30 119 -25 159 -34 245 -55 102 -26 123 -32 154 -44 16 -6 30 -10 32 -8
4 4 29 131 44 222 6 33 14 80 19 105 79 396 74 582 -19 720 -51 75 -74 94
-155 131 -64 30 -79 33 -170 33 -117 1 -157 -15 -231 -90 -41 -43 -114 -175
-114 -208 0 -8 -4 -18 -10 -21 -6 -4 -10 10 -10 36 0 73 -39 183 -87 247 -38
51 -120 99 -196 116 -83 19 -107 19 -173 -2z m180 -322 c5 -5 17 -10 26 -10
29 0 102 -72 126 -124 29 -62 31 -144 6 -261 l-18 -80 -34 3 c-30 2 -177 31
-315 61 -22 5 -66 15 -97 22 -67 14 -67 16 -43 126 20 88 46 163 65 187 65 82
103 99 204 92 38 -3 74 -10 80 -16z m687 -77 c181 -43 242 -208 179 -488 -6
-26 -13 -51 -15 -55 -2 -4 -32 -1 -67 7 -83 18 -142 30 -203 42 -114 22 -299
61 -302 65 -8 8 50 223 74 273 33 72 103 139 161 157 62 19 91 19 173 -1z"/>
<path d="M22690 14859 c-64 -16 -393 -65 -605 -90 -49 -5 -119 -14 -155 -19
-69 -10 -184 -23 -340 -39 -52 -6 -157 -13 -232 -17 -161 -8 -148 9 -118 -158
11 -60 20 -121 20 -135 0 -54 8 -56 122 -33 56 12 137 26 178 32 172 25 209
30 293 40 143 16 257 30 337 40 224 27 470 50 540 50 l59 0 -5 33 c-12 93 -34
281 -34 293 0 16 -9 16 -60 3z"/>
<path d="M2850 14439 c-134 -37 -234 -147 -285 -314 -8 -27 -19 -92 -25 -145
-11 -102 -30 -439 -30 -531 l0 -56 293 -6 c358 -7 935 -45 1160 -75 32 -5 60
-5 63 0 5 7 23 239 24 299 l0 26 -272 6 c-150 4 -288 9 -305 13 l-33 6 0 162
c-1 195 -15 275 -69 385 -74 153 -227 242 -411 240 -41 0 -91 -5 -110 -10z
m205 -313 c85 -18 130 -42 175 -93 57 -66 75 -126 74 -256 -1 -59 -3 -109 -5
-111 -2 -3 -67 0 -144 5 -77 5 -219 14 -316 20 l-176 11 5 102 c9 192 67 281
211 321 61 17 104 17 176 1z"/>
<path d="M22025 14393 c-22 -21 -76 -69 -120 -108 -44 -38 -89 -79 -101 -90
-17 -17 -163 -149 -198 -180 -52 -46 -215 -195 -235 -213 -23 -23 -24 -27 -17
-125 17 -250 25 -419 26 -509 0 -99 5 -128 22 -128 5 0 22 -8 36 -19 15 -10
44 -28 65 -40 21 -12 44 -26 50 -31 17 -15 147 -100 152 -100 2 0 51 -30 109
-67 57 -38 151 -97 207 -133 57 -36 125 -80 152 -97 27 -18 51 -33 53 -33 3 0
38 -22 79 -50 41 -27 77 -50 80 -50 3 0 41 -24 84 -52 43 -29 86 -58 97 -65
15 -10 -23 -11 -186 -8 -489 12 -965 36 -1005 51 -15 6 -20 -37 -31 -226 l-6
-115 254 3 c353 5 918 -16 1220 -44 l67 -7 -2 163 -2 163 -185 118 c-102 65
-205 131 -230 147 -48 31 -213 136 -370 235 -52 33 -124 79 -160 102 -131 84
-214 135 -221 135 -4 0 -9 6 -12 13 -5 14 115 14 558 -3 324 -12 429 -18 540
-31 44 -5 85 -9 92 -9 15 0 22 52 26 211 l4 126 -386 1 c-471 2 -1049 29
-1088 50 -25 15 202 261 497 536 47 44 124 117 172 164 75 74 88 83 101 71 17
-16 36 -31 97 -79 25 -19 47 -37 50 -40 3 -3 41 -34 85 -68 44 -35 87 -68 95
-75 28 -22 205 -171 210 -177 3 -3 38 -34 79 -70 l74 -65 -6 45 c-4 25 -12 86
-17 135 -17 151 -16 149 -63 163 -37 12 -182 90 -211 113 -6 5 -63 48 -126 94
-63 47 -130 98 -149 113 -18 15 -53 41 -76 57 -73 52 -160 120 -163 128 -7 15
-28 6 -67 -30z"/>
<path d="M3790 13120 c0 -6 8 -27 19 -48 20 -41 54 -149 71 -227 12 -59 30
-256 30 -336 l0 -56 -142 -6 c-79 -4 -212 -7 -297 -7 l-154 0 7 173 c3 94 12
205 20 245 l13 74 -118 -4 c-66 -1 -119 -7 -119 -12 0 -6 6 -37 14 -70 30
-127 56 -399 39 -409 -4 -3 -121 -8 -259 -12 l-251 -7 -6 84 c-10 142 22 390
69 540 4 15 -2 17 -58 13 -35 -2 -85 -4 -112 -4 l-49 -1 7 -337 c10 -514 16
-625 33 -618 74 28 1222 64 1448 45 l60 -5 -1 40 c-1 22 -5 246 -10 498 l-7
457 -124 0 c-78 0 -123 -4 -123 -10z"/>
<path d="M15520 12323 c-178 -7 -366 -84 -461 -190 -72 -80 -119 -209 -119
-328 0 -186 91 -335 252 -413 l57 -27 -84 -43 c-202 -104 -303 -295 -274 -524
32 -255 195 -404 516 -468 94 -19 357 -8 456 18 79 22 209 78 215 94 2 4 9 8
15 8 30 0 137 124 168 196 55 122 66 280 28 394 -24 73 -83 165 -131 204 -18
15 -42 35 -53 44 -24 19 -110 62 -145 71 -22 7 -17 10 40 38 41 19 86 52 123
89 90 90 127 186 127 329 0 347 -256 526 -730 508z m174 -192 c62 -27 104 -67
130 -126 61 -131 61 -297 0 -416 -93 -185 -365 -180 -454 9 -7 15 -18 38 -24
51 -6 14 -11 80 -11 160 1 151 12 189 78 263 66 74 187 99 281 59z m-31 -876
c135 -28 208 -112 243 -276 28 -132 -4 -298 -73 -379 -70 -82 -183 -122 -282
-100 -152 34 -238 134 -263 309 -33 235 70 420 251 451 25 4 48 8 51 9 3 0 36
-6 73 -14z"/>
<path d="M17190 12319 c-176 -13 -308 -66 -419 -169 -36 -33 -100 -139 -113
-187 -17 -58 -21 -242 -8 -288 20 -66 63 -144 100 -182 47 -47 138 -108 175
-117 30 -8 29 -8 -35 -40 -213 -103 -302 -239 -304 -461 -1 -192 66 -331 204
-424 137 -92 284 -131 500 -131 174 0 337 34 437 92 21 12 50 27 64 35 46 23
129 121 160 188 117 249 56 509 -152 652 -41 29 -115 66 -149 75 -8 3 12 17
44 33 186 91 279 281 247 503 -13 95 -42 162 -99 231 -38 46 -140 117 -207
143 -113 44 -266 60 -445 47z m181 -181 c52 -16 124 -78 150 -129 11 -22 27
-76 35 -122 27 -137 -7 -290 -78 -361 -65 -64 -159 -89 -245 -66 -140 38 -208
151 -208 345 0 137 22 203 90 270 27 28 66 56 85 62 48 15 122 15 171 1z m22
-890 c93 -20 178 -126 207 -259 16 -71 8 -217 -14 -284 -38 -109 -120 -182
-232 -205 -57 -12 -141 -1 -194 26 -32 15 -101 80 -124 116 -27 42 -56 166
-56 243 0 187 84 331 210 363 84 21 105 21 203 0z"/>
<path d="M19015 12319 c-44 -4 -106 -14 -137 -23 -50 -14 -78 -26 -185 -80
-13 -6 -23 -14 -23 -18 0 -5 -6 -8 -14 -8 -7 0 -47 -33 -88 -74 -197 -197
-288 -463 -288 -841 0 -171 6 -228 43 -395 33 -153 123 -323 210 -396 68 -56
92 -74 105 -74 6 0 12 -3 12 -8 0 -11 135 -58 207 -72 79 -16 288 -8 364 13
54 15 169 64 179 77 3 3 21 17 40 30 61 43 81 63 124 130 93 144 111 213 111
425 0 141 -3 169 -25 235 -40 125 -112 223 -204 279 -75 45 -123 61 -233 76
-181 26 -355 -22 -471 -130 -55 -51 -62 -53 -62 -18 0 82 37 320 52 337 4 6 8
19 8 31 0 35 69 165 113 212 69 75 173 123 266 123 128 0 266 -79 348 -199 13
-18 23 -30 24 -25 0 5 1 82 2 171 l2 163 -60 19 c-122 39 -269 53 -420 40z
m131 -1004 c62 -36 107 -94 129 -167 30 -95 28 -336 -4 -428 -47 -139 -133
-210 -253 -210 -193 1 -289 161 -327 549 -10 99 -10 116 4 138 20 30 144 123
166 123 8 0 19 4 25 9 14 15 62 20 143 15 56 -3 85 -10 117 -29z"/>
<path d="M14094 12258 c31 -225 31 -1605 0 -1861 l-6 -47 203 2 204 3 -5 115
c-8 188 -6 1596 3 1718 l8 112 -207 0 -206 0 6 -42z"/>
<path d="M21311 11803 c-7 -48 -17 -121 -24 -161 l-11 -74 44 -36 c25 -21 70
-59 101 -87 93 -84 190 -168 284 -250 50 -43 121 -105 159 -139 38 -34 78 -69
90 -79 22 -19 101 -89 195 -172 31 -27 64 -56 75 -65 60 -50 119 -110 108
-110 -12 0 -96 15 -217 40 -51 10 -221 42 -330 61 -33 6 -78 14 -100 19 -22 5
-67 14 -100 20 -33 7 -143 32 -244 56 -101 24 -186 44 -190 44 -4 0 -13 -24
-20 -52 -21 -94 -46 -188 -62 -240 -4 -16 -5 -28 -1 -28 4 0 52 -7 107 -15
120 -17 242 -38 405 -69 47 -9 112 -21 145 -27 33 -6 80 -15 105 -20 25 -5
137 -28 250 -50 318 -63 330 -66 418 -92 57 -17 85 -21 87 -13 2 6 6 29 10 51
4 22 11 60 15 85 33 182 32 174 16 186 -9 6 -46 38 -82 70 -37 32 -113 99
-168 148 -139 122 -212 187 -275 243 -29 26 -62 55 -73 63 -10 8 -36 30 -56
48 -20 19 -62 55 -92 80 -30 26 -62 54 -70 62 -8 9 -64 58 -123 110 -102 89
-107 95 -81 98 15 2 46 -1 68 -7 23 -6 127 -27 231 -46 105 -20 208 -40 230
-45 22 -4 65 -13 95 -19 202 -37 376 -77 493 -111 44 -13 57 -7 57 25 0 14 4
44 9 67 19 85 30 144 37 191 l6 47 -33 0 c-34 0 -268 32 -364 50 -27 5 -102
19 -165 30 -111 21 -311 59 -415 80 -265 53 -337 69 -430 95 -111 32 -100 38
-114 -62z"/>
<path d="M4020 11810 c-36 -11 -90 -24 -120 -30 -63 -12 -73 -14 -310 -65
-178 -38 -222 -47 -320 -63 -30 -6 -116 -22 -190 -36 -237 -47 -320 -61 -427
-72 -70 -7 -72 -11 -53 -83 5 -20 18 -88 30 -151 28 -154 40 -217 50 -265 25
-114 86 -424 100 -512 5 -34 21 -115 35 -180 14 -65 25 -121 25 -124 0 -4 19
0 43 8 63 22 222 63 302 78 109 20 476 95 515 105 19 5 62 14 95 19 33 6 112
20 175 31 164 29 214 38 308 51 78 11 83 13 77 33 -5 18 -35 131 -65 241 -14
53 -22 66 -39 61 -9 -3 -47 -14 -86 -25 -91 -26 -291 -72 -435 -100 -30 -6
-91 -18 -135 -27 -91 -19 -136 -28 -215 -42 -30 -6 -133 -27 -227 -46 -249
-52 -225 -60 -251 87 -13 67 -27 140 -32 162 -4 22 -14 67 -20 100 -6 33 -16
78 -20 100 -22 98 -33 175 -27 181 3 3 79 21 169 40 90 18 186 38 213 43 28 6
97 20 155 31 58 11 125 24 150 29 25 5 74 15 110 21 36 6 85 16 110 21 127 26
340 59 381 59 25 0 48 2 51 5 2 3 1 29 -3 57 -4 29 -12 89 -18 133 -17 124
-21 145 -29 144 -4 0 -36 -9 -72 -19z"/>
<path d="M23125 11275 c-5 -2 -34 -11 -64 -20 -105 -32 -192 -108 -239 -208
-52 -112 -67 -262 -36 -367 17 -59 76 -151 119 -188 45 -39 119 -83 126 -75 3
5 13 49 22 98 31 172 31 165 13 165 -29 0 -110 43 -137 72 -40 43 -50 90 -33
147 7 26 22 57 31 68 29 33 105 56 167 51 l54 -4 6 40 c3 23 10 64 16 91 5 28
12 69 16 93 7 41 6 42 -22 41 -16 0 -33 -2 -39 -4z"/>
<path d="M21400 9481 c-86 -19 -182 -89 -230 -166 -79 -128 -62 -325 38 -436
181 -202 490 -157 603 88 27 59 32 80 32 153 1 76 -2 93 -33 158 -57 125 -167
200 -302 207 -40 2 -89 0 -108 -4z"/>
<path d="M3811 9440 c-64 -14 -130 -49 -182 -97 -102 -95 -138 -267 -85 -402
82 -206 313 -289 517 -186 46 23 119 101 146 155 49 98 48 241 -2 340 -69 135
-246 220 -394 190z"/>
<path d="M20705 8170 c-88 -4 -190 -8 -227 -9 -73 -1 -92 -12 -122 -75 l-15
-31 112 -12 c62 -7 177 -18 257 -25 l144 -13 21 -40 c11 -22 22 -42 26 -45 3
-3 52 -87 109 -187 114 -198 104 -190 148 -111 l21 37 -21 53 c-11 29 -27 69
-35 88 -9 19 -21 49 -28 65 -7 17 -22 50 -33 75 -11 25 -37 89 -57 143 l-38
97 -51 -2 c-28 -1 -123 -5 -211 -8z"/>
<path d="M5115 8155 c-200 -28 -382 -123 -562 -290 -45 -42 -143 -167 -143
-182 0 -7 -3 -13 -8 -13 -4 0 -12 -12 -19 -27 -67 -159 -76 -197 -76 -348 0
-71 5 -146 11 -165 46 -140 58 -172 84 -224 27 -55 125 -203 152 -232 6 -6 42
-46 80 -88 76 -85 182 -175 264 -226 52 -32 53 -32 74 -14 53 47 128 122 128
127 0 3 -16 9 -36 13 -20 4 -61 19 -92 34 -238 117 -412 363 -412 584 0 208
131 416 370 588 189 136 397 198 568 169 188 -31 358 -187 428 -393 23 -66 25
-85 22 -205 -2 -72 -1 -128 2 -124 3 4 58 47 123 96 64 48 117 90 117 94 0 3
-26 58 -58 121 -104 207 -254 409 -373 502 -30 24 -62 50 -73 60 -28 25 -194
106 -251 122 -45 13 -79 18 -195 31 -19 2 -75 -3 -125 -10z"/>
<path d="M19602 7852 c-26 -31 -54 -63 -62 -72 -8 -9 -26 -30 -39 -46 -13 -16
-37 -43 -53 -61 -29 -29 -30 -33 -18 -70 6 -21 15 -47 20 -58 5 -11 52 -150
105 -310 53 -159 99 -299 104 -310 4 -11 23 -67 42 -125 18 -58 36 -112 40
-120 11 -23 170 -501 176 -530 5 -22 -3 -17 -63 35 -38 33 -71 62 -74 65 -3 3
-36 32 -75 65 -38 33 -75 65 -81 70 -11 10 -116 103 -209 185 -28 25 -82 72
-120 105 -101 89 -240 221 -317 300 l-69 70 -20 -25 c-23 -27 -73 -86 -167
-197 l-62 -72 35 -21 c20 -12 41 -27 48 -33 6 -7 30 -25 52 -42 22 -16 45 -34
52 -40 6 -5 26 -21 44 -35 18 -14 37 -30 43 -36 6 -5 43 -37 82 -70 74 -62
122 -104 339 -293 275 -240 391 -347 500 -459 44 -45 83 -82 86 -82 3 0 51 52
105 117 54 64 106 123 113 131 13 13 8 35 -38 176 -29 88 -64 190 -77 226 -13
36 -89 263 -169 505 -80 242 -150 449 -155 460 -9 19 -50 144 -50 152 0 8 37
-18 70 -49 20 -18 67 -60 105 -93 39 -33 93 -80 121 -105 28 -25 81 -72 119
-105 38 -33 92 -81 119 -106 28 -25 64 -57 80 -70 60 -50 165 -148 281 -262
l120 -118 18 23 c23 29 97 117 112 132 5 6 35 39 65 74 43 50 51 65 40 72 -36
20 -128 89 -200 148 -148 122 -230 191 -265 224 -22 20 -51 46 -65 58 -48 41
-123 105 -134 115 -23 21 -104 92 -176 155 -136 119 -194 173 -313 291 l-117
117 -48 -56z"/>
<path d="M20455 7839 l-250 -9 -22 -26 c-30 -38 -48 -73 -40 -81 4 -3 49 -10
99 -14 261 -22 346 -30 377 -37 35 -8 28 2 202 -302 8 -14 16 -27 19 -30 3 -3
16 -27 29 -53 14 -26 28 -50 32 -53 5 -3 24 16 42 42 l35 47 -30 71 c-17 39
-38 89 -48 111 -10 22 -33 76 -50 120 -34 86 -75 181 -89 205 -10 19 -8 19
-306 9z"/>
<path d="M6295 7227 c-6 -7 -39 -47 -73 -89 -164 -202 -907 -955 -1082 -1097
l-25 -20 136 -136 135 -136 50 63 c62 79 184 213 344 377 374 384 594 612 599
618 3 4 19 19 34 33 l28 24 264 -264 c146 -146 265 -269 265 -274 0 -5 -46
-56 -102 -114 -305 -311 -387 -394 -529 -539 -152 -154 -356 -350 -411 -393
-16 -12 -28 -27 -28 -33 0 -19 261 -271 268 -260 15 22 80 100 136 163 227
252 877 909 979 990 31 25 56 49 57 54 0 5 -233 242 -517 527 -373 372 -521
514 -528 506z"/>
<path d="M18480 6584 c-30 -25 -66 -56 -80 -67 -14 -12 -50 -42 -80 -67 -30
-25 -57 -47 -60 -51 -3 -3 -32 -27 -65 -54 -93 -75 -226 -186 -267 -224 -21
-19 -48 -41 -60 -49 -13 -9 -25 -18 -28 -22 -3 -3 -48 -41 -100 -85 -52 -44
-100 -84 -106 -90 -7 -5 -31 -26 -55 -45 -24 -19 -54 -44 -66 -55 l-24 -20 53
-66 c78 -97 109 -132 111 -128 2 2 9 18 17 34 37 76 122 188 212 278 l99 97
22 -22 c12 -13 38 -43 57 -68 19 -25 37 -47 41 -50 3 -3 46 -54 94 -115 49
-60 91 -112 94 -115 4 -3 18 -21 33 -42 15 -20 34 -42 41 -50 7 -7 53 -62 102
-123 49 -60 92 -112 95 -115 4 -3 26 -32 51 -65 24 -33 56 -73 70 -90 41 -46
149 -191 211 -281 l55 -82 29 27 c16 15 52 45 81 68 79 62 173 145 173 153 0
3 -27 35 -61 71 -105 111 -419 481 -558 658 -25 31 -47 58 -51 61 -3 3 -64 77
-135 165 -71 88 -132 162 -135 165 -3 3 -15 18 -27 33 l-22 28 52 43 c64 51
131 97 177 120 76 38 193 86 211 86 26 0 24 9 -9 46 -15 17 -36 44 -47 59 -32
44 -76 95 -84 95 -3 0 -31 -21 -61 -46z"/>
<path d="M7415 5809 c-146 -45 -272 -142 -415 -319 -173 -215 -256 -369 -295
-553 -51 -236 51 -454 289 -620 141 -99 243 -132 401 -131 89 1 121 5 170 24
153 58 294 209 355 380 31 85 34 257 6 335 -42 119 -120 226 -232 315 -59 48
-132 86 -223 117 -99 33 -227 36 -313 6 -32 -11 -58 -16 -58 -12 0 18 159 166
210 196 30 17 83 37 117 44 54 11 72 11 135 -4 40 -10 102 -32 138 -48 70 -33
163 -89 168 -101 2 -5 8 -8 13 -8 5 0 83 -49 174 -110 90 -60 168 -110 173
-110 9 0 65 73 176 227 l37 52 -38 6 c-67 12 -127 35 -180 71 -29 18 -55 34
-59 34 -3 0 -25 14 -49 30 -24 17 -46 30 -49 30 -4 0 -40 20 -80 45 -41 25
-77 45 -80 45 -4 0 -25 9 -49 20 -131 60 -320 77 -442 39z m102 -628 c172 -79
201 -269 76 -495 -55 -99 -171 -215 -254 -255 -158 -74 -320 -15 -374 139 -69
195 119 519 355 611 60 24 144 24 197 0z"/>
<path d="M17050 5488 c-94 -27 -168 -51 -195 -63 -16 -8 -50 -23 -75 -33 -45
-20 -206 -122 -250 -158 -109 -92 -224 -217 -243 -267 -5 -13 12 -43 59 -107
37 -49 70 -87 74 -85 5 3 12 20 15 38 15 71 84 192 147 258 89 94 157 139 269
180 51 19 85 23 169 24 102 0 121 -4 210 -43 71 -30 171 -106 237 -179 38 -41
69 -79 71 -83 10 -27 -397 -246 -648 -351 -67 -28 -65 -26 -52 -41 5 -7 22
-35 37 -63 44 -80 86 -145 96 -145 4 0 17 9 27 20 34 37 197 159 337 253 166
111 283 187 289 187 7 0 60 -116 78 -170 39 -114 43 -139 43 -255 0 -120 -3
-136 -46 -232 -11 -24 -19 -47 -19 -53 0 -5 -4 -10 -10 -10 -5 0 -10 -6 -10
-12 0 -14 -131 -144 -165 -165 -146 -91 -281 -123 -428 -103 -51 7 -100 16
-109 21 -24 13 -23 2 5 -40 13 -20 48 -78 78 -128 54 -93 64 -101 97 -84 9 5
60 26 112 46 109 42 253 116 344 178 243 165 387 362 445 611 15 63 16 240 1
314 -26 132 -92 281 -177 399 -66 94 -109 140 -188 202 -77 61 -140 93 -246
125 -74 23 -102 26 -215 25 -71 -1 -145 -6 -164 -11z"/>
<path d="M8640 5312 c0 -19 -33 -104 -76 -200 -13 -29 -24 -54 -24 -57 0 -9
-204 -432 -369 -765 -98 -198 -115 -230 -214 -405 -24 -44 -43 -83 -40 -87 2
-4 43 -27 91 -50 48 -24 89 -46 90 -50 2 -5 10 -8 17 -8 7 0 39 -14 70 -30 32
-17 60 -29 62 -26 2 2 15 33 27 69 13 35 37 93 54 128 16 35 32 74 36 87 4 12
29 66 56 120 26 54 58 120 70 147 12 28 51 107 86 178 35 70 64 134 64 142 0
8 5 15 10 15 6 0 10 4 10 9 0 14 239 501 246 501 13 0 208 -101 249 -130 24
-17 46 -30 50 -30 17 0 189 -140 237 -193 21 -22 40 -38 42 -36 15 18 108 220
103 225 -1 2 -126 64 -277 139 -151 75 -283 140 -292 145 -10 6 -68 35 -130
66 -62 31 -139 69 -171 85 -69 34 -77 35 -77 11z"/>
<path d="M15595 4834 c-33 -14 -81 -32 -106 -40 l-46 -15 -11 -222 c-7 -122
-14 -283 -18 -357 -3 -74 -10 -223 -15 -330 -5 -107 -13 -287 -18 -400 -13
-265 -21 -401 -30 -473 -5 -32 -4 -60 1 -63 8 -5 73 16 143 47 11 4 44 16 73
25 28 9 52 18 52 19 0 2 -8 38 -17 81 -16 71 -18 145 -18 711 1 348 4 636 9
640 4 4 21 -8 37 -27 66 -76 93 -107 133 -150 53 -59 186 -207 209 -234 16
-19 52 -59 197 -221 154 -171 237 -285 296 -408 19 -40 38 -72 42 -72 13 0
380 133 391 142 3 2 -31 40 -75 86 -100 104 -162 172 -243 267 -35 41 -71 82
-80 90 -9 9 -38 42 -66 75 -27 33 -57 67 -65 75 -9 8 -26 28 -38 44 -12 16
-46 55 -75 86 -28 31 -77 86 -108 121 -62 72 -272 310 -358 408 -31 35 -67 77
-80 92 -28 34 -38 35 -116 3z"/>
<path d="M9592 4703 c-27 -60 -49 -109 -48 -110 1 -1 36 9 77 24 63 22 91 26
194 27 106 1 130 -2 205 -27 230 -75 368 -249 386 -487 9 -118 -3 -260 -23
-267 -12 -5 -230 58 -298 86 -11 5 -51 21 -90 36 -84 34 -175 74 -273 122 -40
19 -76 33 -78 30 -7 -7 -65 -194 -71 -229 -5 -25 -2 -28 23 -28 45 0 376 -66
484 -96 110 -31 255 -78 262 -83 9 -9 -40 -126 -87 -207 -136 -233 -371 -351
-607 -303 -106 21 -226 77 -305 144 -30 24 -122 144 -145 187 l-25 47 -18 -62
c-36 -126 -57 -193 -65 -214 -8 -20 -3 -26 58 -61 109 -63 201 -102 367 -157
500 -167 944 -5 1143 418 40 85 55 128 89 247 20 72 23 318 4 381 -50 170
-119 287 -223 384 -107 98 -260 187 -410 236 -124 42 -280 69 -389 69 l-86 0
-51 -107z"/>
<path d="M10798 4363 c-8 -65 -14 -119 -13 -121 2 -2 27 2 56 7 131 27 202 33
322 28 71 -3 133 -9 138 -14 6 -6 6 -36 -1 -79 -5 -38 -24 -184 -40 -324 -17
-140 -33 -268 -36 -285 -3 -16 -10 -63 -15 -102 -5 -40 -13 -106 -18 -145 -5
-40 -14 -107 -21 -148 -6 -41 -15 -106 -21 -145 -13 -101 -44 -260 -54 -287
-7 -19 2 -22 90 -33 146 -17 204 -24 241 -30 l41 -7 7 143 c6 129 27 329 56
554 6 44 17 136 25 205 8 69 26 215 41 325 14 110 29 225 33 255 l6 55 55 -3
c107 -5 225 -39 357 -105 45 -23 84 -39 87 -36 5 5 36 201 36 230 0 13 -12 18
-62 22 -100 9 -221 24 -393 47 -88 12 -193 26 -232 31 -40 5 -106 13 -145 18
-40 5 -131 16 -203 25 -71 9 -158 21 -191 26 -34 6 -77 10 -96 10 l-35 0 -15
-117z"/>
<path d="M13655 4310 l-150 -5 -11 -115 c-17 -174 -51 -311 -139 -555 -18 -49
-39 -108 -46 -130 -7 -22 -17 -44 -21 -50 -4 -5 -8 -16 -8 -25 0 -28 -62 -171
-74 -167 -6 2 -24 28 -41 58 -16 30 -52 90 -80 133 -135 212 -195 308 -195
313 0 2 -13 24 -30 48 -16 24 -30 47 -30 50 0 4 -9 19 -20 34 -41 59 -119 220
-145 304 l-28 87 -218 0 c-121 0 -219 -3 -219 -6 0 -12 25 -51 66 -105 53 -69
133 -197 334 -529 31 -52 73 -121 93 -152 20 -31 59 -94 85 -140 27 -46 72
-120 100 -166 29 -46 52 -88 52 -93 0 -5 5 -9 10 -9 6 0 10 -5 10 -10 0 -6 18
-39 40 -72 22 -34 40 -71 40 -82 0 -25 -77 -99 -131 -126 -31 -16 -60 -22
-123 -22 -71 -1 -91 3 -137 26 -30 15 -69 39 -86 52 l-33 25 0 -136 0 -136 48
-21 c38 -18 65 -22 147 -21 203 2 335 76 454 256 41 61 146 266 190 372 5 11
16 36 24 55 9 19 25 60 37 90 12 30 27 69 35 85 7 17 32 80 55 140 24 61 49
124 55 140 7 17 27 68 45 115 18 47 38 99 45 115 8 17 21 51 29 76 9 26 43
101 76 168 59 119 68 143 53 139 -5 -1 -75 -5 -158 -8z"/>
<path d="M14806 4086 c-33 -8 -52 -18 -57 -31 -4 -11 -38 -96 -74 -190 -37
-93 -71 -179 -75 -190 -4 -11 -17 -44 -29 -73 l-20 -53 72 -68 c242 -228 331
-306 350 -309 12 -1 43 4 69 10 l48 13 -33 35 c-17 19 -50 58 -72 85 -22 28
-49 59 -60 71 -11 11 -36 41 -55 65 -19 24 -50 61 -70 82 -19 21 -38 45 -43
52 -4 8 7 67 24 132 17 65 35 134 39 153 13 55 46 183 54 208 8 25 6 25 -68 8z"/>
<path d="M14424 3998 c-46 -11 -47 -12 -94 -138 -36 -97 -42 -111 -63 -160
-25 -58 -87 -227 -87 -238 0 -5 21 -29 48 -53 26 -24 99 -92 162 -150 214
-197 190 -180 250 -169 29 6 54 10 56 10 17 0 -12 41 -99 140 -12 14 -67 78
-121 143 -114 136 -110 102 -47 347 58 230 62 243 67 263 6 19 -7 20 -72 5z"/>
</g>
</svg>
